# xmcd
#
# Track frame offsets:
#	150
#	28680
#	53425
#
# Disc length: 1178 seconds
#
# Revision: 1
# Processed by: cddbd v1.5PL3 Copyright (c) Steve Scherf et al.
# Submitted via: CDex 1.50Beta5
#
DISCID=19049803
DTITLE=Carve - シーケンス ノーツ
DYEAR=2002
DGENRE=Rock
TTITLE0=シーケンス ノーツ
TTITLE1=Hopstep
TTITLE2=Escape - Xxx Extrax -
EXTD=
EXTT0=
EXTT1=
EXTT2=
PLAYORDER=
